<?xml version="1.0" encoding="UTF-8"?>
<svg version="1.1" xmlns="http://www.w3.org/2000/svg" width="2000" height="2000">
<path d="M0 0 C660 0 1320 0 2000 0 C2000 660 2000 1320 2000 2000 C1340 2000 680 2000 0 2000 C0 1340 0 680 0 0 Z " fill="#000000" transform="translate(0,0)"/>
<path d="M0 0 C3.4187628 2.73501024 5.30649717 4.6979474 6 9 C6.09776953 11.56852105 6.14350706 14.10984833 6.14044189 16.67828369 C6.14489858 17.8448812 6.14489858 17.8448812 6.1494453 19.03504634 C6.15812319 21.6434923 6.15963978 24.25189231 6.16113281 26.86035156 C6.16576164 28.72971189 6.17078639 30.59907128 6.17617798 32.46842957 C6.18929802 37.54914597 6.19574621 42.62984917 6.20018864 47.71057987 C6.20312009 50.88530976 6.20722505 54.06003603 6.21169281 57.2347641 C6.2253669 67.16917951 6.23503391 77.10358667 6.2388947 87.03801084 C6.24337492 98.50312545 6.26092154 109.96812081 6.2898953 121.43319917 C6.31151723 130.29702824 6.32159926 139.16082378 6.32293582 148.02467895 C6.32398351 153.31783237 6.32988366 158.61087368 6.34775543 163.90399933 C6.36424483 168.88460458 6.36638735 173.86501354 6.35761642 178.84563637 C6.35684651 180.67092477 6.36118275 182.49622376 6.37107468 184.32148552 C6.3838139 186.81915004 6.3779069 189.31612141 6.36749268 191.81378174 C6.37554908 192.53092165 6.38360548 193.24806157 6.39190602 193.98693299 C6.32765652 200.60498487 4.90741449 205.97988746 0.35546875 210.80078125 C-0.68661345 211.6552687 -1.74345497 212.49199599 -2.8125 213.3125 C-3.38145996 213.77124512 -3.95041992 214.22999023 -4.53662109 214.70263672 C-6.34439649 216.15290614 -8.17023974 217.57760751 -10 219 C-11.19471051 219.94312425 -12.38872728 220.88712799 -13.58203125 221.83203125 C-15.93892073 223.69321156 -18.30292695 225.54482375 -20.671875 227.390625 C-24.50929184 230.38792322 -28.27430591 233.46987711 -32.03515625 236.5625 C-40.60193558 243.60554388 -49.19173709 250.61744436 -57.9375 257.4375 C-64.62390928 262.65578766 -71.16231627 268.04557611 -77.69921875 273.44921875 C-86.69453866 280.88402236 -95.7363624 288.25853258 -104.9375 295.4375 C-111.6237655 300.65597876 -118.16230981 306.04557077 -124.69921875 311.44921875 C-133.69453866 318.88402236 -142.7363624 326.25853258 -151.9375 333.4375 C-158.6237655 338.65597876 -165.16230981 344.04557077 -171.69921875 349.44921875 C-180.69453866 356.88402236 -189.7363624 364.25853258 -198.9375 371.4375 C-205.6237655 376.65597876 -212.16230981 382.04557077 -218.69921875 387.44921875 C-227.69453866 394.88402236 -236.7363624 402.25853258 -245.9375 409.4375 C-252.6237655 414.65597876 -259.16230981 420.04557077 -265.69921875 425.44921875 C-275.47132467 433.52605082 -285.30527947 441.52294261 -295.30932617 449.3112793 C-298.93528298 452.13845542 -302.48142184 455.04143578 -306 458 C-302.9892513 464.70841579 -296.82717816 469.2160894 -291.35546875 473.92578125 C-288.98413626 476.01396956 -286.67197177 478.15456323 -284.36279297 480.31079102 C-279.93368962 484.44621293 -275.4978867 488.47770646 -270.75 492.25 C-264.93794071 496.90988895 -259.57391273 502.01053828 -254.18847656 507.15332031 C-250.14019817 511.01490163 -246.02930056 514.77261877 -241.80151367 518.43701172 C-239.50679582 520.42790258 -237.25200957 522.46101836 -235 524.5 C-232.04130249 527.17048344 -229.07073528 529.82298058 -226.0625 532.4375 C-222.88778403 535.19784541 -219.78462564 538.02792558 -216.6875 540.875 C-213.12865889 544.12628694 -209.51480381 547.24039458 -205.75 550.25 C-199.69469891 555.13246659 -194.0880579 560.45206494 -188.4296875 565.78125 C-184.23752293 569.72787672 -179.93102121 573.51651527 -175.53857422 577.23828125 C-167.54399184 584.01375542 -159.7536153 590.94922444 -152.1015625 598.109375 C-147.47420616 602.43560786 -142.69103995 606.56424263 -137.86328125 610.6640625 C-131.41538083 616.14965715 -125.08438538 621.71742115 -118.89794922 627.49658203 C-114.43157352 631.64924317 -109.82300834 635.6142504 -105.17333984 639.55932617 C-100.22239424 643.77364743 -95.43154095 648.14364758 -90.65625 652.5546875 C-86.13701153 656.71504527 -81.49821391 660.72685535 -76.8203125 664.70703125 C-69.99475703 670.52118248 -63.28098997 676.41671861 -56.71875 682.52734375 C-54.73027182 684.33583037 -52.73458445 686.05582913 -50.65625 687.75390625 C-49.34140625 688.86572266 -49.34140625 688.86572266 -48 690 C-48 690.33 -48 690.66 -48 691 C-124.38962447 691.0685323 -200.77925264 691.13213373 -277.16889954 691.16937256 C-278.29881876 691.16992479 -279.42873798 691.17047702 -280.59289718 691.17104598 C-305.14688245 691.18301657 -329.70086804 691.19409744 -354.25485412 691.20426132 C-366.29547248 691.20925083 -378.33609075 691.21443702 -390.37670898 691.21972656 C-391.57491903 691.2202496 -392.77312907 691.22077263 -394.00764851 691.22131152 C-432.87116321 691.23836825 -471.73465469 691.26842194 -510.59815532 691.30518888 C-550.52302785 691.3428915 -590.44788753 691.36753532 -630.37277756 691.37565996 C-636.00706651 691.37681264 -641.64135541 691.37811519 -647.2756443 691.37950897 C-648.38459387 691.37977866 -649.49354344 691.38004836 -650.63609755 691.38032622 C-668.51396013 691.38505995 -686.39178308 691.40363063 -704.26962948 691.42732814 C-722.22664974 691.45083702 -740.18363055 691.459882 -758.14066567 691.45400551 C-768.81979129 691.45095459 -779.49877293 691.45915062 -790.17787265 691.48319017 C-797.30265134 691.49813822 -804.42733525 691.49869117 -811.55212036 691.48732725 C-815.61745237 691.48126151 -819.68251125 691.48165523 -823.7478145 691.49953273 C-827.44254206 691.51565788 -831.13678203 691.51354039 -834.83150165 691.4965599 C-836.79397524 691.49233273 -838.75646063 691.50784206 -840.71887198 691.5240339 C-841.87970904 691.51504473 -843.0405461 691.50605556 -844.23656005 691.49679399 C-845.23655183 691.49741791 -846.23654361 691.49804183 -847.26683817 691.49868466 C-850.7699169 690.85952323 -852.44743741 689.43269734 -855 687 C-857.06045258 683.24697352 -857.25269625 680.01449045 -857.26069641 675.77575684 C-857.26778122 674.52240036 -857.27486603 673.26904388 -857.28216553 671.97770691 C-857.27987193 670.5964657 -857.27736226 669.21522484 -857.2746582 667.83398438 C-857.27900733 666.37339518 -857.28419115 664.91280826 -857.29014587 663.45222473 C-857.30352409 659.49154184 -857.30411597 655.53095445 -857.30158257 651.57025337 C-857.30051228 648.26249407 -857.30539762 644.95475405 -857.310188 641.64699888 C-857.32127864 633.84391555 -857.32172277 626.04088037 -857.31567383 618.23779297 C-857.30963054 610.18920044 -857.32195503 602.14078256 -857.3432439 594.09221983 C-857.36085666 587.17913559 -857.36686186 580.26610697 -857.36360615 573.35300112 C-857.36179297 569.22529124 -857.36443311 565.09770603 -857.37832069 560.97001648 C-857.39088954 557.08921425 -857.38896405 553.20868459 -857.37590981 549.32788658 C-857.37354258 547.90448095 -857.376284 546.48105619 -857.38453293 545.0576725 C-857.39498837 543.11322113 -857.38510376 541.1686922 -857.3742218 539.22424316 C-857.37447341 537.5927319 -857.37447341 537.5927319 -857.37473011 535.9282608 C-856.94351483 532.55860684 -856.0186034 530.71229873 -854 528 C-850.38818445 525.59212296 -848.75969727 525.74645492 -844.46199512 525.73828697 C-843.79162599 525.73429091 -843.12125685 525.73029485 -842.43057349 525.72617769 C-840.16814509 525.7151463 -837.90595893 525.71841266 -835.64350891 525.7215271 C-834.01162077 525.71652747 -832.37973511 525.71065266 -830.74785298 525.70397437 C-826.25099678 525.68812004 -821.75420297 525.68474071 -817.25732219 525.68332577 C-812.41273066 525.67964117 -807.56817373 525.66449045 -802.72360229 525.65071106 C-794.32587863 525.62840476 -785.92816721 525.61341177 -777.5304203 525.60334396 C-765.38859524 525.58877698 -753.24681286 525.56324578 -741.1050128 525.53501268 C-721.40717802 525.4895086 -701.70933711 525.45290877 -682.01147461 525.421875 C-662.87344282 525.39170425 -643.73542604 525.35736078 -624.59741211 525.31738281 C-623.41833703 525.31492126 -622.23926194 525.31245972 -621.02445731 525.30992357 C-615.10956093 525.29754926 -609.19466471 525.28509267 -603.27976859 525.27259517 C-554.18653334 525.16897325 -505.09327937 525.07978788 -456 525 C-457.74970414 523.56797065 -459.49947245 522.13601973 -461.24926758 520.70410156 C-462.22366287 519.90667542 -463.19805817 519.10924927 -464.20198059 518.28765869 C-467.69142714 515.43468966 -471.18786032 512.59044829 -474.6875 509.75 C-476.06641053 508.6302136 -477.44531665 507.51042178 -478.82421875 506.390625 C-479.51563965 505.82923828 -480.20706055 505.26785156 -480.91943359 504.68945312 C-484.28025428 501.96041309 -487.6400889 499.23015975 -491 496.5 C-492.33332835 495.41666054 -493.66666169 494.33332721 -495 493.25 C-497.66666667 491.08333333 -500.33333333 488.91666667 -503 486.75 C-503.99060425 485.9451416 -503.99060425 485.9451416 -505.0012207 485.12402344 C-506.33050495 484.04396984 -507.65976937 482.96389183 -508.98901367 481.88378906 C-512.38413329 479.12507227 -515.77962852 476.36681991 -519.17578125 473.609375 C-525.83152992 468.20470691 -532.48063627 462.79239361 -539.11328125 457.359375 C-544.70456154 452.78950586 -550.313385 448.2411831 -555.91943359 443.68945312 C-559.94303375 440.42222558 -563.96529698 437.15335239 -567.98779297 433.88476562 C-571.38332977 431.12573597 -574.779224 428.36714835 -578.17578125 425.609375 C-584.83152992 420.20470691 -591.48063627 414.79239361 -598.11328125 409.359375 C-603.70456154 404.78950586 -609.313385 400.2411831 -614.91943359 395.68945312 C-618.28025428 392.96041309 -621.6400889 390.23015975 -625 387.5 C-626.33332835 386.41666054 -627.66666169 385.33332721 -629 384.25 C-631.66666667 382.08333333 -634.33333333 379.91666667 -637 377.75 C-637.99060425 376.9451416 -637.99060425 376.9451416 -639.0012207 376.12402344 C-640.33050495 375.04396984 -641.65976937 373.96389183 -642.98901367 372.88378906 C-646.38413329 370.12507227 -649.77962852 367.36681991 -653.17578125 364.609375 C-659.83152992 359.20470691 -666.48063627 353.79239361 -673.11328125 348.359375 C-678.70456154 343.78950586 -684.313385 339.2411831 -689.91943359 334.68945312 C-693.28025428 331.96041309 -696.6400889 329.23015975 -700 326.5 C-701.33332835 325.41666054 -702.66666169 324.33332721 -704 323.25 C-706.66666667 321.08333333 -709.33333333 318.91666667 -712 316.75 C-712.99060425 315.9451416 -712.99060425 315.9451416 -714.0012207 315.12402344 C-715.33050495 314.04396984 -716.65976937 312.96389183 -717.98901367 311.88378906 C-721.38413329 309.12507227 -724.77962852 306.36681991 -728.17578125 303.609375 C-734.83152992 298.20470691 -741.48063627 292.79239361 -748.11328125 287.359375 C-753.70456154 282.78950586 -759.313385 278.2411831 -764.91943359 273.68945312 C-768.94303375 270.42222558 -772.96529698 267.15335239 -776.98779297 263.88476562 C-780.38332977 261.12573597 -783.779224 258.36714835 -787.17578125 255.609375 C-793.83152992 250.20470691 -800.48063627 244.79239361 -807.11328125 239.359375 C-813.39627699 234.2241525 -819.70028106 229.11468124 -826 224 C-827.39845644 222.86460666 -828.79689403 221.7291901 -830.1953125 220.59375 C-830.87932129 220.03840576 -831.56333008 219.48306152 -832.26806641 218.91088867 C-834.27348722 217.2816938 -836.27738371 215.65063747 -838.28125 214.01953125 C-840.62740636 212.11086546 -842.98085801 210.21211833 -845.34375 208.32421875 C-846.3234375 207.53660156 -847.303125 206.74898437 -848.3125 205.9375 C-849.57513672 204.93009766 -849.57513672 204.93009766 -850.86328125 203.90234375 C-854.22449008 200.90982327 -856.18446226 198.43744171 -857 194 C-857.09957823 191.51536604 -857.14782523 189.05861162 -857.14717102 186.57400513 C-857.15084771 185.82344719 -857.1545244 185.07288925 -857.1583125 184.29958713 C-857.16933047 181.7832139 -857.17318992 179.266882 -857.17700195 176.75048828 C-857.18326788 174.94684722 -857.18991479 173.14320745 -857.19691467 171.33956909 C-857.21793675 165.41649268 -857.22831323 159.49341605 -857.23828125 153.5703125 C-857.24232907 151.53108583 -857.246446 149.4918593 -857.25063133 147.4526329 C-857.2696765 137.87489322 -857.28391068 128.29716122 -857.2922433 118.71940625 C-857.30202286 107.66117701 -857.32836399 96.60314756 -857.36874419 85.54498875 C-857.39888489 76.99796188 -857.41371011 68.45099237 -857.41702431 59.90391338 C-857.41937654 54.79857509 -857.42835989 49.69345041 -857.45348549 44.5881691 C-857.4767363 39.78645443 -857.4810115 34.9850945 -857.47072411 30.18333817 C-857.47022796 28.42170533 -857.47657168 26.66005521 -857.49028015 24.89847565 C-857.50795959 22.4918785 -857.50091335 20.08656003 -857.48774719 17.67996216 C-857.49871644 16.9842332 -857.50968568 16.28850424 -857.52098733 15.57169259 C-857.4513584 10.29387947 -855.73450044 6.73450044 -852 3 C-847.68953148 2.20176509 -845.32615055 2.14808775 -841.5859375 4.55078125 C-839.22557833 6.50110824 -836.92449134 8.5031139 -834.64697266 10.54931641 C-831.57472246 13.25541049 -828.37228374 15.80336225 -825.1875 18.375 C-824.50582764 18.92937744 -823.82415527 19.48375488 -823.12182617 20.05493164 C-818.72345899 23.62837771 -814.28309971 27.14256543 -809.8125 30.625 C-804.63623822 34.65977334 -799.59741624 38.83021629 -794.60595703 43.09082031 C-790.72016568 46.40457959 -786.77016858 49.61960376 -782.76953125 52.79296875 C-779.28631542 55.56873313 -775.83014172 58.37691565 -772.375 61.1875 C-771.69203857 61.7429248 -771.00907715 62.29834961 -770.30541992 62.87060547 C-768.90242221 64.01177787 -767.49950959 65.1530549 -766.09667969 66.29443359 C-762.73237286 69.03116479 -759.36611672 71.7654955 -756 74.5 C-754.6666567 75.58332107 -753.33332338 76.66665442 -752 77.75 C-751.34 78.28625 -750.68 78.8225 -750 79.375 C-712 110.25 -712 110.25 -709.99951172 111.87548828 C-708.66792549 112.95734112 -707.33622 114.03904718 -706.00439453 115.12060547 C-702.64333059 117.85039108 -699.28446381 120.58280217 -695.9296875 123.3203125 C-689.60113653 128.48017636 -683.2539311 133.60650853 -676.8125 138.625 C-671.63627425 142.65982038 -666.59741809 146.83021471 -661.60595703 151.09082031 C-657.72016568 154.40457959 -653.77016858 157.61960376 -649.76953125 160.79296875 C-646.28631542 163.56873313 -642.83014172 166.37691565 -639.375 169.1875 C-638.69203857 169.7429248 -638.00907715 170.29834961 -637.30541992 170.87060547 C-635.90242221 172.01177787 -634.49950959 173.1530549 -633.09667969 174.29443359 C-629.73237286 177.03116479 -626.36611672 179.7654955 -623 182.5 C-621.6666567 183.58332107 -620.33332338 184.66665442 -619 185.75 C-618.34 186.28625 -617.68 186.8225 -617 187.375 C-563 231.25 -563 231.25 -560.99951172 232.87548828 C-559.66792549 233.95734112 -558.33622 235.03904718 -557.00439453 236.12060547 C-553.64333059 238.85039108 -550.28446381 241.58280217 -546.9296875 244.3203125 C-540.60113653 249.48017636 -534.2539311 254.60650853 -527.8125 259.625 C-522.63627425 263.65982038 -517.59741809 267.83021471 -512.60595703 272.09082031 C-508.72016568 275.40457959 -504.77016858 278.61960376 -500.76953125 281.79296875 C-497.28631542 284.56873313 -493.83014172 287.37691565 -490.375 290.1875 C-489.69203857 290.7429248 -489.00907715 291.29834961 -488.30541992 291.87060547 C-486.90242221 293.01177787 -485.49950959 294.1530549 -484.09667969 295.29443359 C-480.73237286 298.03116479 -477.36611672 300.7654955 -474 303.5 C-472.6666567 304.58332107 -471.33332338 305.66665442 -470 306.75 C-469.34 307.28625 -468.68 307.8225 -468 308.375 C-462 313.25 -462 313.25 -459.99975586 314.87524414 C-458.66729608 315.95783721 -457.3347766 317.04035683 -456.00219727 318.12280273 C-452.65500368 320.84186078 -449.30887867 323.56221415 -445.96484375 326.28515625 C-437.01398918 333.57071039 -428.0234595 340.80456894 -419 348 C-414.85587232 346.29958397 -411.75613368 343.35853019 -408.4375 340.4375 C-407.17535788 339.34013436 -405.91232866 338.24378823 -404.6484375 337.1484375 C-404.02678711 336.60928711 -403.40513672 336.07013672 -402.76464844 335.51464844 C-400.40013342 333.48511729 -397.98639471 331.52054107 -395.5625 329.5625 C-389.21723119 324.40813208 -383.07490552 319.02637235 -376.90966797 313.65966797 C-369.86727609 307.5392154 -362.80997199 301.43969663 -355.5625 295.5625 C-350.51066283 291.46020051 -345.5969402 287.21298022 -340.68994141 282.93994141 C-336.10903362 278.95296241 -331.49258493 275.01188319 -326.84863281 271.09863281 C-322.83615816 267.71518052 -318.85289612 264.29899816 -314.875 260.875 C-310.81379124 257.38176144 -306.72481029 253.93551293 -302.5625 250.5625 C-296.21723119 245.40813208 -290.07490552 240.02637235 -283.90966797 234.65966797 C-276.86727609 228.5392154 -269.80997199 222.43969663 -262.5625 216.5625 C-257.51066283 212.46020051 -252.5969402 208.21298022 -247.68994141 203.93994141 C-243.10903362 199.95296241 -238.49258493 196.01188319 -233.84863281 192.09863281 C-229.83615816 188.71518052 -225.85289612 185.29899816 -221.875 181.875 C-217.81379124 178.38176144 -213.72481029 174.93551293 -209.5625 171.5625 C-203.21723119 166.40813208 -197.07490552 161.02637235 -190.90966797 155.65966797 C-183.86727609 149.5392154 -176.80997199 143.43969663 -169.5625 137.5625 C-164.51066283 133.46020051 -159.5969402 129.21298022 -154.68994141 124.93994141 C-150.10903362 120.95296241 -145.49258493 117.01188319 -140.84863281 113.09863281 C-136.83615816 109.71518052 -132.85289612 106.29899816 -128.875 102.875 C-124.81379124 99.38176144 -120.72481029 95.93551293 -116.5625 92.5625 C-111.51066283 88.46020051 -106.5969402 84.21298022 -101.68994141 79.93994141 C-97.10903362 75.95296241 -92.49258493 72.01188319 -87.84863281 68.09863281 C-83.83615816 64.71518052 -79.85289612 61.29899816 -75.875 57.875 C-71.81379124 54.38176144 -67.72481029 50.93551293 -63.5625 47.5625 C-57.21723119 42.40813208 -51.07490552 37.02637235 -44.90966797 31.65966797 C-36.05475205 23.96397398 -27.12969633 16.36926161 -18 9 C-17.06542969 8.24203125 -16.13085938 7.4840625 -15.16796875 6.703125 C-5.98737029 -0.7043965 -5.98737029 -0.7043965 0 0 Z " fill="#FEFEFE" transform="translate(1486,672)"/>
</svg>
